<svg id="Layer_1" data-name="Layer 1" xmlns="http://www.w3.org/2000/svg" viewBox="0 0 583.92 221.4"><defs><style>.cls-1{fill:#fff;}.cls-2{fill:#95c941;}.cls-3{fill:#95c93d;}</style></defs><title>Sencha-An_Idera_Inc_Company</title><path class="cls-1" d="M189.58,133.09a13.84,13.84,0,0,0,4.24,5,18.2,18.2,0,0,0,6.19,2.82,29.53,29.53,0,0,0,7.37.92,37.79,37.79,0,0,0,5.52-.43,19.1,19.1,0,0,0,5.53-1.66,12.08,12.08,0,0,0,4.3-3.37,8.47,8.47,0,0,0,1.71-5.47,7.68,7.68,0,0,0-2.27-5.77,18.15,18.15,0,0,0-5.95-3.68,61,61,0,0,0-8.35-2.58q-4.67-1.09-9.45-2.45a84.37,84.37,0,0,1-9.58-3,32.81,32.81,0,0,1-8.34-4.6,20.52,20.52,0,0,1-8.27-17.31,22.92,22.92,0,0,1,2.91-11.76,25.9,25.9,0,0,1,7.55-8.28,32.49,32.49,0,0,1,10.55-4.91A45.28,45.28,0,0,1,205.05,65a55.3,55.3,0,0,1,13.19,1.54,33,33,0,0,1,11.24,5,25.19,25.19,0,0,1,7.79,8.78,26.92,26.92,0,0,1,2.87,12.89H221.5a15.54,15.54,0,0,0-1.66-6.51,10.8,10.8,0,0,0-3.74-4,16.08,16.08,0,0,0-5.34-2.09,32.93,32.93,0,0,0-6.57-.61,22.24,22.24,0,0,0-4.67.49,12.5,12.5,0,0,0-4.23,1.72,10.55,10.55,0,0,0-3.15,3,8.16,8.16,0,0,0-1.23,4.66,8,8,0,0,0,1,4.18A8.86,8.86,0,0,0,195.78,97a48.89,48.89,0,0,0,8,2.7q5.08,1.35,13.32,3.44c1.63.33,3.91.92,6.81,1.78a32.78,32.78,0,0,1,8.66,4.11,26.16,26.16,0,0,1,7.42,7.55q3.13,4.73,3.13,12.09a26.92,26.92,0,0,1-2.33,11.18,24.34,24.34,0,0,1-6.93,8.9,33.52,33.52,0,0,1-11.42,5.83,54,54,0,0,1-15.78,2.08,55.51,55.51,0,0,1-14-1.78,35.11,35.11,0,0,1-12-5.58,27.61,27.61,0,0,1-8.29-9.7,28.87,28.87,0,0,1-2.95-14H188A16.16,16.16,0,0,0,189.58,133.09Z" transform="translate(0 0.01)"/><path class="cls-1" d="M269,139.48q3.93,3.81,11.3,3.8a15.58,15.58,0,0,0,9.08-2.64c2.53-1.75,4.09-3.62,4.66-5.58h15.35q-3.69,11.41-11.29,16.32t-18.42,4.92a36.22,36.22,0,0,1-13.5-2.4A28,28,0,0,1,256,147.09a31,31,0,0,1-6.45-10.56,38.8,38.8,0,0,1-2.27-13.5,37,37,0,0,1,2.33-13.26,30.69,30.69,0,0,1,16.88-17.68,32.88,32.88,0,0,1,13.2-2.58,30.28,30.28,0,0,1,14.12,3.13,28.33,28.33,0,0,1,9.88,8.41,34.5,34.5,0,0,1,5.59,12,45,45,0,0,1,1.22,14.12H264.74Q265.15,135.68,269,139.48Zm19.7-33.39c-2.08-2.29-5.26-3.44-9.51-3.44a15.24,15.24,0,0,0-6.94,1.41,13.32,13.32,0,0,0-4.42,3.5,12.91,12.91,0,0,0-2.33,4.43,20.48,20.48,0,0,0-.8,4.17h28.4Q291.87,109.52,288.74,106.09Z" transform="translate(0 0.01)"/><path class="cls-1" d="M334.52,91.23v8.84h.37a20,20,0,0,1,8.59-8,24.81,24.81,0,0,1,10.8-2.52,29.57,29.57,0,0,1,11.48,1.91,17,17,0,0,1,7.06,5.28,20.41,20.41,0,0,1,3.62,8.22,50.94,50.94,0,0,1,1.05,10.74v39H360.06V118.85q0-7.84-2.46-11.72t-8.72-3.87q-7.11,0-10.31,4.24t-3.19,13.93V154.7H318V91.23Z" transform="translate(0 0.01)"/><path class="cls-1" d="M417.49,102.65a12.21,12.21,0,0,0-7,1.9,15.13,15.13,0,0,0-4.61,4.91,21.42,21.42,0,0,0-2.51,6.63,36.08,36.08,0,0,0-.74,7.18,35,35,0,0,0,.74,7,21.85,21.85,0,0,0,2.39,6.44,13.71,13.71,0,0,0,4.48,4.73,12.28,12.28,0,0,0,6.88,1.84q6.25,0,9.63-3.5a16.61,16.61,0,0,0,4.24-9.39h16.82Q446.15,143,438,149.67t-20.74,6.63a34.63,34.63,0,0,1-13.08-2.4,28.9,28.9,0,0,1-10.12-6.69A30.21,30.21,0,0,1,387.54,137a35.59,35.59,0,0,1-2.33-13.07,41.89,41.89,0,0,1,2.15-13.69,30.58,30.58,0,0,1,6.32-10.93,28.76,28.76,0,0,1,10.19-7.18,34.47,34.47,0,0,1,13.75-2.58A39.49,39.49,0,0,1,428.48,91a29,29,0,0,1,9.33,4.48,23.21,23.21,0,0,1,9.64,18.1H430.38Q428.67,102.65,417.49,102.65Z" transform="translate(0 0.01)"/><path class="cls-1" d="M472.3,67.05v33h.37a20.23,20.23,0,0,1,8.47-8,22.91,22.91,0,0,1,10.07-2.52,29.57,29.57,0,0,1,11.48,1.91,17,17,0,0,1,7.06,5.28,20.47,20.47,0,0,1,3.62,8.22,51.63,51.63,0,0,1,1,10.74v39H497V118.85q0-7.84-2.46-11.72t-8.71-3.87q-7.12,0-10.31,4.24t-3.2,13.93V154.7H454.87V67.05Z" transform="translate(0 0.01)"/><path class="cls-1" d="M524,110.75a20.2,20.2,0,0,1,3.06-10.19,20.76,20.76,0,0,1,6.88-6.5,29.76,29.76,0,0,1,9.39-3.5,52.92,52.92,0,0,1,10.5-1,71.4,71.4,0,0,1,9.69.68,29.79,29.79,0,0,1,9,2.64,17.61,17.61,0,0,1,6.63,5.41c1.71,2.33,2.56,5.42,2.57,9.27v33a68.6,68.6,0,0,0,.49,8.23,14.85,14.85,0,0,0,1.72,5.89h-17.7a23.67,23.67,0,0,1-.8-3,25.32,25.32,0,0,1-.43-3.13,22.83,22.83,0,0,1-9.82,6,39.58,39.58,0,0,1-11.54,1.72,31.2,31.2,0,0,1-8.49-1.08,19.53,19.53,0,0,1-6.88-3.44,15.87,15.87,0,0,1-4.6-5.89,19.9,19.9,0,0,1-1.66-8.47,18.4,18.4,0,0,1,1.9-8.9,16.1,16.1,0,0,1,4.91-5.59,22.1,22.1,0,0,1,6.88-3.13,74.4,74.4,0,0,1,7.79-1.65q3.93-.62,7.74-1A48.22,48.22,0,0,0,558,116a11.86,11.86,0,0,0,4.67-2.15,4.74,4.74,0,0,0,1.59-4.11,9.24,9.24,0,0,0-.92-4.48,6.63,6.63,0,0,0-2.46-2.58,9.62,9.62,0,0,0-3.56-1.23,28.74,28.74,0,0,0-4.35-.3c-3.44,0-6.14.73-8.11,2.21s-3.11,3.92-3.43,7.36Zm40.26,12.89a7.84,7.84,0,0,1-2.76,1.54,31.53,31.53,0,0,1-3.56.92c-1.27.24-2.6.45-4,.61s-2.78.37-4.17.61a32.32,32.32,0,0,0-3.87,1,11.72,11.72,0,0,0-3.32,1.65,7.91,7.91,0,0,0-2.27,2.64,8.52,8.52,0,0,0-.86,4,8.24,8.24,0,0,0,.86,3.93,6.45,6.45,0,0,0,2.34,2.52,10,10,0,0,0,3.43,1.29,22.38,22.38,0,0,0,4,.37c3.44,0,6.1-.58,8-1.72a11.62,11.62,0,0,0,4.18-4.12A13,13,0,0,0,563.9,134a32.19,32.19,0,0,0,.31-3.93Z" transform="translate(0 0.01)"/><path class="cls-2" d="M191.59,207.05,189.18,201H175.64l-2.42,6.09h-3.88l11-27.23h4.2l10.94,27.23Zm-9.13-23.76L176.69,198h11.49Z" transform="translate(0 0.01)"/><path class="cls-2" d="M212.24,207.05v-12.9c0-3.51-1.79-4.58-4.44-4.58a7.66,7.66,0,0,0-5.83,3V207h-3.05v-19.7H202v2.85a9.63,9.63,0,0,1,7-3.33c4.06,0,6.26,2,6.26,6.35v13.85Z" transform="translate(0 0.01)"/><path class="cls-2" d="M232.13,207.05V179.82h3.39v27.23Z" transform="translate(0 0.01)"/><path class="cls-2" d="M256.06,207.05v-3a8.29,8.29,0,0,1-6.66,3.43c-5.13,0-8.77-3.91-8.77-10.33s3.64-10.35,8.77-10.35a8.24,8.24,0,0,1,6.66,3.47v-10.5h3.18v27.23Zm0-5.38v-8.92a7.38,7.38,0,0,0-5.89-3.18c-4.06,0-6.37,3.27-6.37,7.63s2.37,7.59,6.37,7.59a7.36,7.36,0,0,0,5.89-3.1Z" transform="translate(0 0.01)"/><path class="cls-2" d="M264.1,197.16a9.83,9.83,0,0,1,9.35-10.3h.35c6,0,9.48,4.65,9.48,10.55v.79H267.36a6.89,6.89,0,0,0,6.95,6.81h.09a8.61,8.61,0,0,0,6.09-2.52l1.49,2a10.94,10.94,0,0,1-7.86,3,9.78,9.78,0,0,1-10-9.55h0A7.85,7.85,0,0,1,264.1,197.16Zm9.66-7.8a6.55,6.55,0,0,0-6.43,6.54h12.93a6.38,6.38,0,0,0-6.21-6.54h-.29Z" transform="translate(0 0.01)"/><path class="cls-2" d="M288.22,207.05V187.33h3v3.2a8.45,8.45,0,0,1,6.5-3.59v3.12a8,8,0,0,0-1.2,0,7.27,7.27,0,0,0-5.38,3.15v14Z" transform="translate(0 0.01)"/><path class="cls-2" d="M314.05,207.05v-2.26a8.43,8.43,0,0,1-6.53,2.74,6.57,6.57,0,0,1-6.87-6.25V201a6.39,6.39,0,0,1,6.28-6.5h.59a8.37,8.37,0,0,1,6.53,2.64v-3.56c0-2.6-2.13-4.06-5-4.06a7.64,7.64,0,0,0-6.09,2.74l-1.44-2a10.32,10.32,0,0,1,7.89-3.25c4.21,0,7.64,1.87,7.64,6.64v13.56Zm0-4.06v-3.76a6.68,6.68,0,0,0-5.4-2.42,4.35,4.35,0,1,0,0,8.63,6.58,6.58,0,0,0,5.4-2.56Z" transform="translate(0 0.01)"/><path class="cls-2" d="M324.05,212.22,322.51,211a6.15,6.15,0,0,0,2.66-3.79,1.82,1.82,0,0,1-.57,0,2,2,0,0,1-2-2,2.2,2.2,0,0,1,2.17-2.22h0c1.38,0,2.56,1.14,2.56,3.11A7.82,7.82,0,0,1,324.05,212.22Z" transform="translate(0 0.01)"/><path class="cls-2" d="M343.32,207.05V179.82h3.39v27.23Z" transform="translate(0 0.01)"/><path class="cls-2" d="M366.3,207.05v-12.9c0-3.51-1.79-4.58-4.45-4.58a7.61,7.61,0,0,0-5.82,3V207h-3v-19.7h3v2.85a9.57,9.57,0,0,1,7.1-3.33c4.06,0,6.23,2,6.23,6.35v13.85Z" transform="translate(0 0.01)"/><path class="cls-2" d="M374.34,197.16a9.73,9.73,0,0,1,9.13-10.3h.69a8.37,8.37,0,0,1,7.23,3.43l-2,1.82a5.85,5.85,0,0,0-5.07-2.59c-4.06,0-6.83,3.22-6.83,7.59s2.66,7.63,6.83,7.63a6.06,6.06,0,0,0,5.07-2.56l2,1.87a8.43,8.43,0,0,1-7.23,3.43,9.78,9.78,0,0,1-9.85-9.71h0A6.08,6.08,0,0,1,374.34,197.16Z" transform="translate(0 0.01)"/><path class="cls-2" d="M395.26,205.22a2.26,2.26,0,1,1,2.27,2.23h0a2.25,2.25,0,0,1-2.27-2.23Z" transform="translate(0 0.01)"/><path class="cls-2" d="M414.76,193.44a13.63,13.63,0,0,1,13.18-14.08h.84a12.19,12.19,0,0,1,10.33,5.41l-2.82,1.58a9.15,9.15,0,0,0-7.51-4.06,11.08,11.08,0,0,0,0,22.13,9.29,9.29,0,0,0,7.51-4.06l2.84,1.56a12.16,12.16,0,0,1-10.35,5.42,13.64,13.64,0,0,1-14-13.2Z" transform="translate(0 0.01)"/><path class="cls-2" d="M442.19,197.16a9.72,9.72,0,1,1,0,.83A5.75,5.75,0,0,1,442.19,197.16Zm16.24,0c0-4.06-2.34-7.59-6.54-7.59s-6.54,3.59-6.54,7.59,2.34,7.63,6.54,7.63,6.6-3.59,6.6-7.63Z" transform="translate(0 0.01)"/><path class="cls-2" d="M490.48,207.05V193.58c0-2.48-1-4.06-3.63-4.06a6.77,6.77,0,0,0-5.22,3V207h-3V193.58c0-2.48-1-4.06-3.64-4.06a7,7,0,0,0-5.2,3V207h-3V187.33h3v2.85a8.69,8.69,0,0,1,6.42-3.33,5.08,5.08,0,0,1,5.28,3.67,8.21,8.21,0,0,1,6.6-3.67c3.59,0,5.52,2,5.52,5.94V207Z" transform="translate(0 0.01)"/><path class="cls-2" d="M502.86,204.06v10.5h-3.05V187.33h3.05v2.95a8.1,8.1,0,0,1,6.66-3.43c5.17,0,8.77,3.91,8.77,10.31s-3.6,10.37-8.77,10.37A8.1,8.1,0,0,1,502.86,204.06Zm12.18-6.9c0-4.37-2.36-7.59-6.32-7.59a7.31,7.31,0,0,0-5.88,3.14v9a7.33,7.33,0,0,0,5.88,3.16C512.57,204.79,515,201.54,515,197.16Z" transform="translate(0 0.01)"/><path class="cls-2" d="M535.34,207.05v-2.26a8.53,8.53,0,0,1-6.54,2.74,6.56,6.56,0,0,1-6.86-6.25V201a6.41,6.41,0,0,1,6.3-6.5h.57a8.4,8.4,0,0,1,6.54,2.64v-3.56c0-2.6-2-4.06-5-4.06a7.68,7.68,0,0,0-6.09,2.74l-1.44-2a10.35,10.35,0,0,1,7.89-3.25c4.2,0,7.63,1.87,7.63,6.64v13.56Zm0-4.06v-3.76a6.72,6.72,0,0,0-5.4-2.42,4.34,4.34,0,1,0-1.17,8.61l.15,0a4.35,4.35,0,0,0,1,0,6.66,6.66,0,0,0,5.4-2.56Z" transform="translate(0 0.01)"/><path class="cls-2" d="M557.91,207.05v-12.9c0-3.51-1.78-4.58-4.44-4.58a7.64,7.64,0,0,0-5.83,3V207h-3v-19.7h3v2.85a9.59,9.59,0,0,1,7.11-3.33c4.06,0,6.23,2,6.23,6.35v13.85Z" transform="translate(0 0.01)"/><path class="cls-2" d="M566.5,212a4.53,4.53,0,0,0,1.67.34,2.86,2.86,0,0,0,2.94-2l1.3-3-8.24-19.92h3.35l6.53,16.25,6.56-16.25h3.31l-9.87,23.72a5.88,5.88,0,0,1-5.8,4.06,9.79,9.79,0,0,1-2.22-.29Z" transform="translate(0 0.01)"/><path class="cls-3" d="M55.93,0S0,15.84,0,75.71C0,159.81,106.29,145.65,106.29,191c0,22.09-16.64,30.41-16.64,30.41s56.17-15.95,56.17-73.18c0-88.5-106.72-68.29-106.72-120.6C39.1,8.53,55.93,0,55.93,0Z" transform="translate(0 0.01)"/></svg>